<svg width="21" height="22" viewBox="0 0 21 22" fill="none" xmlns="http://www.w3.org/2000/svg">
<path d="M12.6096 20.752L12.4414 20.6474L12.2473 20.6864C11.6739 20.8015 11.0935 20.8413 10.5 20.8413C5.36392 20.8413 1.19727 16.6612 1.19727 11.5002C1.19727 10.9445 1.23706 10.3645 1.35031 9.83395L1.39217 9.63783L1.28692 9.46714C0.798525 8.6751 0.5 7.73572 0.5 6.72369C0.5 3.83198 2.81711 1.49836 5.7454 1.45899C6.72124 1.45956 7.65337 1.72367 8.43139 2.20718L8.60297 2.31382L8.80047 2.27133C9.32769 2.15791 9.90459 2.11781 10.5 2.11781C15.6361 2.11781 19.8027 6.29799 19.8027 11.459C19.8027 12.0036 19.7348 12.4793 19.6571 13.024C19.6526 13.0551 19.6481 13.0864 19.6437 13.118L19.619 13.2912L19.7078 13.442C20.2022 14.2821 20.5 15.2248 20.5 16.2355C20.5 19.1364 18.1744 21.5002 15.2988 21.5002C14.3218 21.5002 13.3885 21.236 12.6096 20.752ZM10.6146 4.00122L10.6146 4.00116L10.6071 4.00079C8.87553 3.91387 7.39193 4.33511 6.34117 5.18133C5.28268 6.03378 4.70659 7.28484 4.75001 8.74913C4.75223 10.0985 5.33066 11.0314 6.18491 11.6786C7.01084 12.3045 8.08357 12.6559 9.0798 12.9202C9.41921 13.0102 9.74557 13.0895 10.0559 13.1649C10.6981 13.321 11.2716 13.4603 11.7502 13.6437C12.4738 13.921 12.666 14.183 12.666 14.4649C12.666 14.6718 12.5736 14.9557 12.2995 15.1943C12.0274 15.431 11.5392 15.6531 10.7051 15.6531C10.1338 15.6531 9.72954 15.5204 9.41489 15.3358C9.09219 15.1465 8.83792 14.888 8.5816 14.5911C8.53023 14.5316 8.47686 14.4679 8.42162 14.4021C8.22141 14.1634 7.99664 13.8954 7.75331 13.688C7.415 13.3997 6.99652 13.1825 6.43945 13.1825C5.44204 13.1825 4.79102 14.0939 4.79102 14.959C4.79102 16.2962 5.6525 17.2994 6.78791 17.9419C7.92401 18.5849 9.40746 18.9178 10.8691 18.9178C12.5357 18.9178 13.9799 18.4614 15.0175 17.604C16.0641 16.739 16.6602 15.4944 16.6602 14.0119C16.6602 12.6781 16.0832 11.7426 15.2357 11.0867C14.4151 10.4517 13.3493 10.0839 12.3538 9.81326C11.9594 9.70602 11.5633 9.61094 11.1908 9.52152C11.0903 9.49737 10.9914 9.47364 10.8947 9.45019C10.433 9.33818 10.0225 9.2328 9.67726 9.11487C9.32583 8.99482 9.08587 8.87577 8.94027 8.75657C8.81073 8.65051 8.78516 8.57176 8.78516 8.49428C8.78516 8.16096 8.92482 7.94332 9.16668 7.78699C9.43262 7.6151 9.83956 7.51193 10.3359 7.51193C11.3979 7.51193 11.9289 7.90377 12.3928 8.32797C12.4498 8.38009 12.5088 8.43668 12.5702 8.49572C12.9861 8.89493 13.5184 9.40604 14.3555 9.40604C14.9465 9.40604 15.4667 9.19698 15.8256 8.80725C16.1841 8.41792 16.3416 7.89156 16.2888 7.33529L16.2874 7.3204L16.2851 7.30562C16.1515 6.44726 15.5058 5.66957 14.5516 5.0959C13.5873 4.51617 12.255 4.10816 10.6146 4.00122Z" stroke="black"/>
</svg>
