<svg width="23" height="23" viewBox="0 0 23 23" fill="none" xmlns="http://www.w3.org/2000/svg">
<g opacity="0.4">
<path d="M11.5 1C5.72018 1 1 5.72018 1 11.5C1 17.2798 5.72018 22 11.5 22C17.2798 22 22 17.2798 22 11.5C22 5.72018 17.2798 1 11.5 1ZM21.1009 11.5C21.1009 11.6927 21.0688 11.8532 21.0688 12.0459C21.0046 11.8853 20.9083 11.6606 20.8761 11.5642C20.844 11.4037 20.6193 10.922 20.6193 10.922C20.6193 10.922 20.3945 10.633 20.2661 10.5688C20.1055 10.4725 20.0092 10.2798 19.7523 10.1514C19.4954 9.99083 19.3991 9.92661 19.1743 9.92661C18.9495 9.92661 18.7248 9.63761 18.5 9.47706C18.2431 9.34862 18.211 9.41284 18.211 9.41284C18.211 9.41284 18.5 9.86239 18.5 9.95872C18.5 10.055 18.8211 10.2477 19.1422 10.1835C19.1422 10.1835 19.367 10.5688 19.4633 10.6972C19.5596 10.7936 19.4312 10.922 19.2064 11.0505C18.9817 11.1789 19.0138 11.1468 18.9174 11.2752C18.8211 11.3716 18.4358 11.5642 18.3394 11.6284C18.2431 11.6927 17.7936 11.9174 17.5688 11.6927C17.4725 11.5963 17.5046 11.3716 17.4083 11.211C17.344 11.0505 16.5734 9.95872 16.2202 9.44495C16.156 9.34862 15.9954 9.09174 15.8991 8.99541C15.8028 8.93119 16.156 8.93119 16.156 8.93119C16.156 8.93119 16.156 8.67431 16.1239 8.48165C16.0917 8.28899 16.156 8.03211 16.156 8.03211C16.156 8.03211 15.8028 8.25688 15.6743 8.3211C15.578 8.38532 15.4495 8.19266 15.3211 8C15.1606 7.80734 15.0321 7.61468 15 7.42202C14.9679 7.22936 15.1927 7.16514 15.1927 7.16514L15.5138 6.97248C15.5138 6.97248 15.8991 6.90826 16.156 6.94037C16.4128 6.97248 16.7982 7.00459 16.7982 7.00459C16.7982 7.00459 16.8945 6.74771 16.7661 6.65138C16.6055 6.55505 16.2844 6.36239 16.156 6.3945C15.9954 6.42661 16.2202 6.20183 16.4128 6.07339L16.0275 6.00917C16.0275 6.00917 15.6743 6.20183 15.5459 6.23394C15.4495 6.26605 15.2569 6.33028 15.0963 6.52294C14.9358 6.7156 15.1606 6.97248 15 7.0367C14.8716 7.10092 14.7431 7.13303 14.6468 7.16514C14.5505 7.19725 14.1972 7.16514 14.1972 7.16514C13.8119 7.16514 14.0688 7.51835 14.1651 7.61468L13.8761 7.26147L13.6835 6.81193C13.6835 6.81193 13.3624 6.58716 13.2339 6.52294C13.1055 6.45872 12.656 6.20184 12.656 6.20184L12.6881 6.52294L13.1055 6.94037H13.1376L13.3624 7.22936L12.8807 7.26147V6.97248C12.4312 6.87615 12.5596 6.74771 12.4954 6.7156C12.3991 6.65138 12.1422 6.45872 12.1422 6.45872C12.1422 6.45872 11.7248 6.52294 11.5963 6.55505C11.5 6.58716 11.4679 6.7156 11.2431 6.77982C11.0183 6.84404 10.922 6.97248 10.8578 7.06881C10.7936 7.16514 10.5367 7.51835 10.4083 7.64679C10.2477 7.80734 9.99083 7.74312 9.8945 7.74312C9.79817 7.74312 9.25229 7.58257 9.25229 7.58257V6.97248C9.25229 6.97248 9.31651 6.61927 9.2844 6.52294L9.6055 6.45872L10.1193 6.36239L10.2798 6.26605L10.5046 5.97706C10.5046 5.97706 10.2477 5.7844 10.4404 5.52752C10.5367 5.39908 10.8257 5.36697 10.9862 5.27064C11.1468 5.17431 11.3394 5.07798 11.3394 5.07798C11.3394 5.07798 11.5963 4.85321 11.8532 4.59633C11.8532 4.59633 12.0459 4.5 12.2385 4.40367C12.2385 4.40367 12.8486 4.94954 12.9771 4.94954C13.0734 4.94954 13.4908 4.69266 13.4908 4.69266C13.4908 4.69266 13.5872 4.37156 13.555 4.24312C13.5229 4.14679 13.3303 3.76147 13.3303 3.76147C13.3303 3.76147 13.2339 3.95413 13.1055 4.08257C13.0092 4.24312 12.9128 4.40367 12.9128 4.40367C12.9128 4.40367 12.3991 4.37156 12.367 4.27523C12.3349 4.1789 12.2706 3.98624 12.2064 3.88991C12.1743 3.79358 11.8853 3.79358 11.6606 3.8578C11.4358 3.92202 11.6927 3.47248 11.6927 3.47248C11.6927 3.47248 11.9174 3.18349 12.0459 3.18349C12.2064 3.18349 12.5275 2.99083 12.656 2.95872C12.8165 2.92661 13.2339 2.76606 13.4266 2.76606C13.6193 2.76606 13.8119 2.83028 13.9404 2.83028C14.0688 2.83028 14.4862 2.83028 14.4862 2.83028L15.2569 2.76606C15.2569 2.76606 15.8991 2.99083 15.7064 3.15138C15.7064 3.15138 15.9633 3.31193 16.0596 3.40826C16.156 3.50459 16.4128 3.31193 16.5734 3.2156C19.3028 5.07798 21.1009 8.06422 21.1009 11.5ZM3.8578 5.84862C3.8578 6.00917 3.66514 6.04128 3.8578 6.3945C4.11468 6.87615 3.88991 7.06881 3.88991 7.06881C3.88991 7.06881 3.27982 7.51835 3.15138 7.58257C3.05505 7.64679 2.76606 8.06422 2.92661 7.93578C3.11927 7.83945 3.31193 7.71101 3.15138 8C2.95872 8.28899 2.63761 8.77064 2.57339 8.93119C2.50917 9.12385 2.12385 9.54128 2.12385 9.76605C2.12385 9.99083 1.9633 10.4083 2.02752 10.6009C2.05963 10.7294 1.9633 11.1147 1.89908 11.2431C1.9633 9.22018 2.63761 7.32569 3.76147 5.81651C3.82569 5.84862 3.8578 5.84862 3.8578 5.84862ZM5.01376 4.46789C5.91284 3.66514 6.94037 2.99083 8.06422 2.57339C7.93578 2.70183 7.80734 2.86239 7.80734 2.86239C7.80734 2.86239 7.55046 2.86239 7.06881 3.37615C6.61927 3.8578 6.74771 3.69725 6.61927 3.8578C6.52294 4.01835 6.55505 4.05046 6.29817 4.21101C6.04128 4.40367 5.94495 4.59633 5.94495 4.59633L5.55963 4.72477L5.23853 4.59633C5.23853 4.59633 4.94954 4.69266 4.98165 4.56422C4.98165 4.53211 4.98165 4.5 5.01376 4.46789ZM9.34862 5.30275L9.18807 5.07798L9.31651 4.75688L9.66972 4.88532V4.24312L9.99083 4.05046L10.2798 4.43578L10.6972 4.91743L10.4083 5.1422L9.66972 5.30275V4.91743L9.34862 5.30275ZM14.0367 8.70642C14.133 8.6422 14.3899 8.80275 14.3899 8.80275C14.3899 8.80275 15.289 8.99541 15.4495 9.09174C15.6101 9.18807 15.8349 9.2844 15.9312 9.38073C15.9954 9.47706 16.2523 9.83028 16.2844 9.92661C16.3165 10.0229 16.5092 10.4404 16.5413 10.5688C16.5734 10.6972 16.7018 11.0826 16.7982 11.2431C16.8945 11.4358 17.5367 12.2064 17.7294 12.5917L18.3716 12.4954C18.3716 12.4954 18.3073 12.8165 18.211 12.9128C18.1468 13.0092 17.922 13.2982 17.8257 13.4587C17.7294 13.5872 17.5688 13.8119 17.344 14.0046C17.1193 14.1972 17.1193 14.3578 17.0229 14.5183C16.9266 14.6789 16.7661 15 16.7661 15C16.7661 15 16.8303 15.7385 16.8624 15.867C16.8945 16.0275 16.6055 16.4128 16.6055 16.4128L16.2844 16.7339L15.8349 17.3119L15.9312 17.8578C15.9312 17.8578 15.6101 18.1147 15.4174 18.2431C15.2248 18.4037 15.2569 18.5 15.1284 18.6284C14.9679 18.7569 14.422 19.0138 14.2615 19.078C14.1009 19.1101 13.3303 19.2385 13.3303 19.2385V18.9174L13.2982 18.5642C13.2982 18.5642 13.2018 18.1147 13.0734 17.9862C12.9771 17.8257 13.0092 17.633 12.8165 17.4404C12.6239 17.2477 12.5596 17.1193 12.5275 16.9908C12.4954 16.8945 12.5596 16.5734 12.5596 16.5734C12.5596 16.5734 12.7202 16.1881 12.7844 16.0275C12.8486 15.867 12.7844 15.6743 12.7202 15.5138C12.656 15.3532 12.6239 15 12.6239 14.9037C12.6239 14.8073 12.3349 14.6147 12.2385 14.5183C12.1422 14.422 12.1743 14.2615 12.1743 14.133C12.1743 13.9725 12.078 13.6514 12.1101 13.3945C12.1422 13.1376 11.789 13.3303 11.5642 13.3945C11.3395 13.4587 11.211 13.3303 11.211 13.1055C11.211 12.8807 10.8257 13.0734 10.5688 13.2018C10.3119 13.3303 10.0229 13.3303 9.73395 13.4587C9.44495 13.555 9.2844 13.3624 9.2844 13.3624C9.2844 13.3624 9.02752 13.1376 8.83486 13.0413C8.6422 12.945 8.48165 12.7202 8.3211 12.5275C8.16055 12.3349 7.80734 11.789 7.77523 11.5963C7.74312 11.3716 7.77523 11.2431 7.77523 10.9862C7.77523 10.7294 7.77523 10.6009 7.80734 10.4083C7.83945 10.2156 7.96789 10.0229 8.06422 9.83028C8.16055 9.63761 8.57798 9.44495 8.67431 9.34862C8.77064 9.2844 9.02752 9.05963 9.02752 8.93119C9.02752 8.80275 9.18807 8.70642 9.25229 8.57798C9.31651 8.41743 9.57339 8.06422 9.8945 8.22477C9.8945 8.22477 10.1835 8.19266 10.2798 8.16055C10.3761 8.12844 10.6651 8.03211 10.8257 7.93578C10.9862 7.87156 11.3394 7.83945 11.3394 7.83945C11.3394 7.83945 11.6284 7.96789 11.7248 7.96789C11.8211 7.96789 12.1743 7.90367 12.1743 7.90367C12.1743 7.90367 12.3349 8.41743 12.3349 8.54587C12.3349 8.6422 12.4312 8.77064 12.6239 8.83486C12.8486 8.80275 13.6835 8.99541 14.0367 8.70642ZM18.211 15.8028C18.211 15.8991 18.1789 16.1881 18.1468 16.3486C18.1147 16.5092 18.0505 16.7339 18.0183 16.8945C17.9862 17.055 17.7936 17.344 17.6972 17.4083C17.6009 17.4725 17.4083 17.6972 17.3119 17.7294C17.2156 17.7615 17.1193 17.4725 17.1514 17.344C17.1835 17.1835 17.3761 16.7982 17.3761 16.7982C17.3761 16.7982 17.4083 16.5734 17.4404 16.445C17.4725 16.3165 17.922 16.1239 17.922 16.1239L18.211 15.578C18.1789 15.5459 18.211 15.6743 18.211 15.8028ZM2.15596 13.6514C2.18807 13.6514 2.2844 13.6835 2.34862 13.7798C2.50917 13.8761 2.57339 13.9404 2.76606 14.0046C2.95872 14.0688 3.02294 14.1972 3.24771 14.2936C3.47248 14.3899 3.40826 14.3257 3.69725 14.6468C3.98624 14.9679 3.95413 14.9679 4.01835 15.1606C4.08257 15.3532 4.21101 15.5138 4.27523 15.6422C4.33945 15.7385 4.56422 15.8349 4.66055 15.8991C4.75688 15.9633 4.94954 16.0596 5.04587 16.0596C5.1422 16.0596 5.49541 16.3807 5.65596 16.4128C5.84862 16.445 5.84862 16.7982 5.84862 16.7982L5.65596 17.3119L5.49541 17.8578L5.65596 18.3073C5.65596 18.3073 5.43119 18.5 5.30275 18.5C5.17431 18.5 5.11009 18.5963 4.98165 18.5321C3.60092 17.2156 2.57339 15.5459 2.15596 13.6514Z" stroke="black" stroke-miterlimit="10"/>
</g>
</svg>
