<svg width="21" height="22" viewBox="0 0 21 22" fill="none" xmlns="http://www.w3.org/2000/svg">
<path d="M0.939453 20.4997V7.4834H4.28596V20.4997H0.939453Z" stroke="black"/>
<path d="M4.57936 2.57114L4.57906 2.57975V2.58837C4.57906 3.74099 3.66734 4.67674 2.53953 4.67674C1.41172 4.67674 0.5 3.74099 0.5 2.58837C0.5 1.43575 1.41172 0.5 2.53953 0.5C3.68323 0.5 4.6181 1.4478 4.57936 2.57114Z" stroke="black"/>
<path d="M12.1622 9.12345L12.1688 9.11164C12.1756 9.09983 12.1871 9.08038 12.2033 9.05437C12.2359 9.00232 12.2873 8.92434 12.3586 8.82902C12.5016 8.63791 12.7222 8.38012 13.027 8.12201C13.6324 7.60926 14.5716 7.09277 15.921 7.09277C17.2834 7.09277 18.4129 7.5109 19.2023 8.31631C19.9917 9.12171 20.5 10.3748 20.5 12.1602V12.1823V12.2043V12.2264V12.2486V12.2708V12.293V12.3152V12.3375V12.3597V12.3821V12.4044V12.4268V12.4492V12.4716V12.4941V12.5166V12.5391V12.5616V12.5842V12.6068V12.6294V12.652V12.6747V12.6974V12.7201V12.7428V12.7656V12.7884V12.8112V12.834V12.8569V12.8797V12.9026V12.9255V12.9485V12.9715V12.9944V13.0174V13.0405V13.0635V13.0866V13.1097V13.1328V13.1559V13.179V13.2022V13.2253V13.2485V13.2718V13.295V13.3182V13.3415V13.3648V13.3881V13.4114V13.4347V13.458V13.4814V13.5047V13.5281V13.5515V13.5749V13.5984V13.6218V13.6452V13.6687V13.6922V13.7157V13.7392V13.7627V13.7862V13.8097V13.8333V13.8568V13.8804V13.9039V13.9275V13.9511V13.9747V13.9983V14.0219V14.0455V14.0692V14.0928V14.1164V14.1401V14.1637V14.1874V14.2111V14.2347V14.2584V14.2821V14.3058V14.3295V14.3532V14.3769V14.4006V14.4243V14.448V14.4717V14.4954V14.5191V14.5428V14.5666V14.5903V14.614V14.6377V14.6614V14.6852V14.7089V14.7326V14.7563V14.78V14.8038V14.8275V14.8512V14.8749V14.8986V14.9223V14.946V14.9697V14.9934V15.0171V15.0408V15.0644V15.0881V15.1118V15.1355V15.1591V15.1828V15.2064V15.2301V15.2537V15.2773V15.3009V15.3245V15.3481V15.3717V15.3953V15.4189V15.4425V15.466V15.4896V15.5131V15.5366V15.5601V15.5836V15.6071V15.6306V15.6541V15.6775V15.701V15.7244V15.7478V15.7712V15.7946V15.818V15.8414V15.8647V15.888V15.9114V15.9347V15.9579V15.9812V16.0045V16.0277V16.0509V16.0741V16.0973V16.1205V16.1436V16.1668V16.1899V16.213V16.236V16.2591V16.2821V16.3051V16.3281V16.3511V16.3741V16.397V16.4199V16.4428V16.4657V16.4885V16.5113V16.5341V16.5569V16.5797V16.6024V16.6251V16.6478V16.6704V16.693V16.7157V16.7382V16.7608V16.7833V16.8058V16.8283V16.8507V16.8731V16.8955V16.9179V16.9402V16.9625V16.9848V17.0071V17.0293V17.0515V17.0736V17.0958V17.1179V17.1399V17.162V17.184V17.2059V17.2279V17.2498V17.2717V17.2935V17.3153V17.3371V17.3588V17.3806V17.4022V17.4239V17.4455V17.467V17.4886V17.5101V17.5315V17.553V17.5744V17.5957V17.617V17.6383V17.6595V17.6807V17.7019V17.723V17.7441V17.7652V17.7862V17.8071V17.8281V17.849V17.8698V17.8906V17.9114V17.9321V17.9528V17.9734V17.994V18.0146V18.0351V18.0555V18.076V18.0963V18.1167V18.137V18.1572V18.1774V18.1976V18.2177V18.2377V18.2578V18.2777V18.2977V18.3175V18.3374V18.3571V18.3769V18.3966V18.4162V18.4358V18.4553V18.4748V18.4943V18.5136V18.533V18.5523V18.5715V18.5907V18.6098V18.6289V18.648V18.6669V18.6859V18.7047V18.7236V18.7423V18.761V18.7797V18.7983V18.8169V18.8353V18.8538V18.8722V18.8905V18.9088V18.927V18.9452V18.9633V18.9813V18.9993V19.0172V19.0351V19.0529V19.0707V19.0884V19.106V19.1236V19.1411V19.1585V19.1759V19.1933V19.2105V19.2278V19.2449V19.262V19.279V19.296V19.3129V19.3297V19.3465V19.3632V19.3799V19.3965V19.413V19.4294V19.4458V19.4621V19.4784V19.4946V19.5107V19.5268V19.5428V19.5587V19.5746V19.5904V19.6061V19.6217V19.6373V19.6528V19.6683V19.6837V19.699V19.7142V19.7294V19.7445V19.7595V19.7745V19.7893V19.8042V19.8189V19.8336V19.8482V19.8627V19.8771V19.8915V19.9058V19.92V19.9342V19.9483V19.9623V19.9762V19.99V20.0038V20.0175V20.0312V20.0447V20.0582V20.0716V20.0849V20.0981V20.1113V20.1244V20.1374V20.1503V20.1631V20.1759V20.1886V20.2012V20.2137V20.2261V20.2385V20.2508V20.263V20.2751V20.2871V20.2991V20.311V20.3227V20.3345V20.3461V20.3576V20.3691V20.3804V20.3917V20.4029V20.414V20.425V20.436V20.4468V20.4576V20.4683V20.4789V20.4894V20.4998V20.5101V20.5204V20.5305V20.5406V20.5486H17.1535V20.5396V20.5296V20.5194V20.5092V20.4989V20.4885V20.4781V20.4675V20.4569V20.4462V20.4354V20.4245V20.4135V20.4025V20.3914V20.3802V20.3689V20.3575V20.3461V20.3346V20.323V20.3113V20.2996V20.2877V20.2758V20.2638V20.2518V20.2397V20.2275V20.2152V20.2028V20.1904V20.1779V20.1653V20.1527V20.14V20.1272V20.1143V20.1014V20.0884V20.0753V20.0622V20.0489V20.0357V20.0223V20.0089V19.9954V19.9818V19.9682V19.9545V19.9408V19.927V19.9131V19.8991V19.8851V19.871V19.8569V19.8427V19.8284V19.8141V19.7997V19.7852V19.7707V19.7561V19.7415V19.7268V19.712V19.6972V19.6823V19.6674V19.6524V19.6373V19.6222V19.6071V19.5918V19.5765V19.5612V19.5458V19.5304V19.5149V19.4993V19.4837V19.468V19.4523V19.4365V19.4207V19.4048V19.3889V19.3729V19.3569V19.3408V19.3246V19.3084V19.2922V19.2759V19.2596V19.2432V19.2268V19.2103V19.1938V19.1772V19.1606V19.1439V19.1272V19.1105V19.0937V19.0768V19.0599V19.043V19.026V19.009V18.992V18.9749V18.9577V18.9405V18.9233V18.9061V18.8888V18.8714V18.854V18.8366V18.8191V18.8016V18.7841V18.7665V18.7489V18.7313V18.7136V18.6959V18.6781V18.6603V18.6425V18.6246V18.6067V18.5888V18.5708V18.5529V18.5348V18.5168V18.4987V18.4806V18.4624V18.4442V18.426V18.4078V18.3895V18.3712V18.3529V18.3345V18.3161V18.2977V18.2793V18.2608V18.2424V18.2238V18.2053V18.1867V18.1681V18.1495V18.1309V18.1122V18.0936V18.0748V18.0561V18.0374V18.0186V17.9998V17.981V17.9622V17.9433V17.9244V17.9055V17.8866V17.8677V17.8488V17.8298V17.8108V17.7918V17.7728V17.7538V17.7347V17.7157V17.6966V17.6775V17.6584V17.6393V17.6202V17.601V17.5819V17.5627V17.5435V17.5243V17.5051V17.4859V17.4667V17.4475V17.4282V17.409V17.3897V17.3705V17.3512V17.3319V17.3126V17.2933V17.274V17.2547V17.2354V17.2161V17.1968V17.1775V17.1582V17.1388V17.1195V17.1002V17.0808V17.0615V17.0421V17.0228V17.0034V16.9841V16.9648V16.9454V16.9261V16.9067V16.8874V16.8681V16.8487V16.8294V16.8101V16.7907V16.7714V16.7521V16.7328V16.7135V16.6942V16.6749V16.6556V16.6363V16.6171V16.5978V16.5785V16.5593V16.54V16.5208V16.5016V16.4824V16.4632V16.444V16.4248V16.4056V16.3865V16.3673V16.3482V16.3291V16.31V16.2909V16.2718V16.2527V16.2337V16.2146V16.1956V16.1766V16.1576V16.1387V16.1197V16.1008V16.0819V16.063V16.0441V16.0253V16.0064V15.9876V15.9688V15.95V15.9313V15.9125V15.8938V15.8751V15.8565V15.8378V15.8192V15.8006V15.782V15.7635V15.745V15.7265V15.708V15.6896V15.6711V15.6528V15.6344V15.6161V15.5977V15.5795V15.5612V15.543V15.5248V15.5067V15.4885V15.4704V15.4524V15.4343V15.4163V15.3984V15.3804V15.3625V15.3447V15.3268V15.309V15.2913V15.2735V15.2558V15.2382V15.2205V15.203V15.1854V15.1679V15.1504V15.133V15.1156V15.0982V15.0809V15.0637V15.0464V15.0292V15.0121V14.995V14.9779V14.9609V14.9439V14.9269V14.91V14.8932V14.8764V14.8596V14.8429V14.8262V14.8096V14.793V14.7765V14.76V14.7435V14.7271V14.7108V14.6945V14.6782V14.662V14.6459V14.6298V14.6138V14.5978V14.5818V14.5659V14.5501V14.5343V14.5185V14.5029V14.4872V14.4717V14.4561V14.4407V14.4253V14.4099V14.3946V14.3794V14.3642V14.349V14.334V14.319V14.304V14.2891V14.2743V14.2595V14.2448V14.2301V14.2155V14.201V14.1865V14.1721V14.1578V14.1435V14.1292V14.1151V14.101V14.087V14.073V14.0591V14.0452V14.0315V14.0178V14.0041V13.9906V13.977V13.9636V13.9502V13.9369V13.9237V13.9105V13.8975V13.8844V13.8715V13.8586V13.8458V13.8331V13.8204V13.8078V13.7953V13.7828V13.7705V13.7582V13.7459V13.7338V13.7217V13.7097V13.6978V13.6859V13.6742C17.1535 12.6266 16.9645 11.7214 16.4908 11.0672C15.9958 10.3837 15.2454 10.0486 14.3094 10.0486C13.3318 10.0486 12.521 10.3893 11.9649 11.0596C11.4204 11.716 11.1721 12.6259 11.1721 13.6742V13.6745C11.1721 14.7488 11.1721 16.581 11.1783 18.1447C11.1813 18.9264 11.1859 19.6426 11.1928 20.1639C11.1944 20.2867 11.1962 20.3992 11.1981 20.4997H8.06982V7.48347H11.221V8.88812L12.1609 9.12256C12.1622 9.12328 12.1622 9.12331 12.1622 9.12334L12.1622 9.12345ZM12.1622 9.12345L12.162 9.1237L12.1617 9.12426L12.1614 9.12474C12.1615 9.1246 12.1618 9.12417 12.1622 9.12345Z" stroke="black"/>
</svg>
