<svg width="37" height="37" viewBox="0 0 37 37" fill="none" xmlns="http://www.w3.org/2000/svg">
<path fill-rule="evenodd" clip-rule="evenodd" d="M22.6784 12.2459L20.9839 12.247C19.655 12.247 19.3973 12.8917 19.3973 13.8375V15.9244H22.5671L22.1541 19.1939H19.3973V27.5807H16.0926V19.1939H13.3291V15.9244H16.0926V13.5146C16.0926 10.7163 17.7658 9.1936 20.2086 9.1936C21.3788 9.1936 22.3848 9.28209 22.6784 9.32231V12.2459ZM18.0033 0C8.06099 0 0 8.23167 0 18.3871C0 28.5414 8.06099 36.7742 18.0033 36.7742C27.9468 36.7742 36.0066 28.5414 36.0066 18.3871C36.0066 8.23167 27.9468 0 18.0033 0Z" transform="translate(0 0.114258)" fill="#3B5898"/>
</svg>
