<svg width="37" height="37" viewBox="0 0 37 37" fill="none" xmlns="http://www.w3.org/2000/svg">
<path fill-rule="evenodd" clip-rule="evenodd" d="M3.27075 0.405665C2.91181 0.150544 2.49998 0.0149395 2.03415 0C1.41753 0.0149395 0.904438 0.259718 0.495988 0.734335C0.150549 1.23194 -0.0137309 1.787 0.000896828 2.40067C0.000896828 3.212 0.241691 4.0555 0.72328 4.93234C0.956198 5.34145 1.25775 5.68851 1.6257 5.97351C1.99476 6.25851 2.41672 6.40101 2.89043 6.40101C3.48904 6.37917 3.98863 6.16772 4.38808 5.7655C4.58049 5.4805 4.70426 5.18861 4.7594 4.88867C4.79203 4.58873 4.80891 4.33706 4.80891 4.1325C4.80891 3.24762 4.57937 2.357 4.12028 1.45833C3.90537 1.02623 3.62181 0.675726 3.27075 0.405665Z" transform="translate(12.8896 10.708)" fill="#DD4B39"/>
<path fill-rule="evenodd" clip-rule="evenodd" d="M4.24991 0.00562041C4.13401 -0.00931911 3.83696 0.00562041 3.35874 0.0492898C2.88728 0.114794 2.40569 0.22052 1.91285 0.366467C1.79696 0.410137 1.6338 0.475641 1.42451 0.564128C1.2141 0.658362 1.00031 0.792818 0.783144 0.968645C0.572731 1.15022 0.396073 1.37661 0.250921 1.64667C0.0843906 1.93052 0 2.27413 0 2.6752C0 3.46239 0.362317 4.11169 1.08695 4.62193C1.77558 5.13332 2.71738 5.39534 3.91347 5.41028C4.98579 5.39534 5.80382 5.16205 6.36867 4.71042C6.92003 4.26453 7.19458 3.69223 7.19458 2.99237C7.19458 2.42352 7.00667 1.92707 6.62972 1.50417C6.2314 1.1031 5.60803 0.611245 4.76075 0.0274551C4.6156 0.0125156 4.44569 0.00562041 4.24991 0.00562041Z" transform="translate(11.7578 20.6904)" fill="#DD4B39"/>
<path fill-rule="evenodd" clip-rule="evenodd" d="M27.0049 19.0432H24.4327V21.6703H23.1477V19.0432H20.5754V17.7297H23.1477V15.1027H24.4327V17.7297H27.0049V19.0432ZM17.7311 11.0414C17.9021 11.2161 18.0698 11.431 18.234 11.6861C18.3916 11.9275 18.5311 12.2113 18.6526 12.54C18.7528 12.8675 18.8023 13.2502 18.8023 13.688C18.7888 14.4902 18.6099 15.1314 18.2633 15.6129C18.0934 15.8462 17.9145 16.0611 17.7243 16.2588C17.5139 16.4553 17.2911 16.6564 17.0537 16.8598C16.9175 16.9989 16.7926 17.1552 16.6767 17.331C16.5417 17.5126 16.4742 17.724 16.4742 17.9653C16.4742 18.1986 16.5428 18.3917 16.6824 18.5445C16.8005 18.6905 16.9153 18.818 17.0267 18.9272L17.7986 19.5512C18.2779 19.9374 18.6987 20.3637 19.0611 20.8303C19.402 21.3049 19.5787 21.9243 19.5933 22.6908C19.5933 23.7768 19.1061 24.7398 18.1328 25.5776C17.1223 26.4452 15.6652 26.8946 13.7613 26.9233C12.168 26.9084 10.9776 26.5739 10.1922 25.9189C9.39891 25.3075 9.00171 24.5755 9.00171 23.7239C9.00171 23.3091 9.13111 22.8471 9.38878 22.338C9.6397 21.8278 10.092 21.3807 10.7492 20.9946C11.4862 20.5798 12.2603 20.3039 13.0716 20.1649C13.8739 20.0488 14.5411 19.9833 15.0722 19.9684C14.9079 19.7558 14.7616 19.5294 14.6334 19.2869C14.4837 19.0525 14.4095 18.7698 14.4095 18.44C14.4095 18.2423 14.4376 18.0768 14.495 17.9447C14.5445 17.8056 14.5906 17.678 14.6334 17.5608C14.3757 17.5896 14.1315 17.6045 13.9031 17.6045C12.6913 17.5896 11.7686 17.2138 11.1329 16.4771C10.4679 15.7922 10.1359 14.9935 10.1359 14.0822C10.1359 12.9813 10.6074 11.9826 11.5492 11.0851C12.195 10.5611 12.8679 10.2175 13.5655 10.0577C14.2553 9.91868 14.9023 9.84973 15.5065 9.84973H20.0569L18.6515 10.6576H17.2484C17.3913 10.7461 17.5522 10.8737 17.7311 11.0414ZM18.0033 0C8.05986 0 0 8.23167 0 18.3871C0 28.5414 8.05986 36.7742 18.0033 36.7742C27.9468 36.7742 36.0066 28.5414 36.0066 18.3871C36.0066 8.23167 27.9468 0 18.0033 0Z" transform="translate(0.825195 0.115234)" fill="#DD4B39"/>
</svg>
