<svg width="37" height="37" viewBox="0 0 37 37" fill="none" xmlns="http://www.w3.org/2000/svg">
<path fill-rule="evenodd" clip-rule="evenodd" d="M18.0033 0C8.05986 0 0 8.23282 0 18.3871C0 28.5425 8.05986 36.7742 18.0033 36.7742C27.9468 36.7742 36.0066 28.5425 36.0066 18.3871C36.0066 8.23282 27.9468 0 18.0033 0Z" transform="translate(0.475586 0.114258)" fill="#3ACE01"/>
<path fill-rule="evenodd" clip-rule="evenodd" d="M9.68601 0C15.0355 0 19.3721 3.5018 19.3721 7.82149C19.3721 9.33034 18.8426 10.7391 17.926 11.9339C17.8807 12.0019 17.8214 12.0771 17.7467 12.1601L17.741 12.1663C17.4279 12.544 17.0753 12.8987 16.6877 13.226C14.0091 15.7227 9.60026 18.6951 9.01836 18.2365C8.51251 17.8379 9.85151 15.8882 8.30669 15.5637C8.19892 15.5512 8.09143 15.5378 7.98485 15.5226L7.98282 15.5225V15.5223C3.44558 14.8723 0 11.6719 0 7.82149C-0.000139777 3.5018 4.33652 0 9.68601 0V0Z" transform="translate(9.19922 9.0166)" fill="white"/>
<path fill-rule="evenodd" clip-rule="evenodd" d="M0.505155 4.79717H2.45868C2.73656 4.79717 2.96384 4.56791 2.96384 4.28769V4.2452C2.96384 3.96498 2.73656 3.73579 2.45868 3.73579H1.05245V0.509409C1.05245 0.229192 0.825175 0 0.547298 0H0.505155C0.227278 0 0 0.229192 0 0.509409V4.28762C0 4.56791 0.227278 4.79717 0.505155 4.79717ZM12.6101 2.42887V2.38637C12.6101 2.10615 12.3828 1.87696 12.1049 1.87696H10.6988V1.07035H12.1049C12.3828 1.07035 12.6101 0.841158 12.6101 0.56094V0.518443C12.6101 0.238225 12.3828 0.0090332 12.1049 0.0090332H10.1514C9.87352 0.0090332 9.64624 0.238225 9.64624 0.518443V4.29666C9.64624 4.57687 9.87352 4.80614 10.1514 4.80614H12.1049C12.3828 4.80614 12.6101 4.57687 12.6101 4.29666V4.25416C12.6101 3.97394 12.3828 3.74475 12.1049 3.74475H10.6988V2.93814H12.1049C12.3828 2.93828 12.6101 2.70902 12.6101 2.42887ZM8.85347 4.64528L8.85361 4.64507C8.94709 4.55002 8.99958 4.42161 8.99968 4.28775V0.509532C8.99968 0.229314 8.7724 0.00012207 8.49445 0.00012207H8.45231C8.17443 0.00012207 7.94715 0.229314 7.94715 0.509532V2.72738L6.12124 0.257716C6.03402 0.104146 5.86978 0.00012207 5.68262 0.00012207H5.64048C5.3626 0.00012207 5.13525 0.229314 5.13525 0.509532V4.28775C5.13525 4.56796 5.36253 4.79723 5.64048 4.79723H5.68262C5.9605 4.79723 6.18778 4.56796 6.18778 4.28775V2.02839L8.02683 4.56141C8.03815 4.57917 8.05052 4.59622 8.06387 4.61243L8.06394 4.61258C8.11447 4.68207 8.18359 4.72971 8.2606 4.75882C8.3198 4.78348 8.38452 4.79716 8.45224 4.79716H8.49438C8.57671 4.7972 8.65777 4.77677 8.7304 4.73767C8.78093 4.71343 8.82349 4.68214 8.85347 4.64528ZM3.87681 4.79723H3.91895C4.19683 4.79723 4.42411 4.56796 4.42411 4.28775V0.509532C4.42411 0.229314 4.19683 0.00012207 3.91895 0.00012207H3.87681C3.59893 0.00012207 3.37158 0.229314 3.37158 0.509532V4.28775C3.37158 4.56796 3.59893 4.79723 3.87681 4.79723Z" transform="translate(12.7603 14.5361)" fill="#3ACE01"/>
</svg>
