<svg width="37" height="37" viewBox="0 0 37 37" fill="none" xmlns="http://www.w3.org/2000/svg">
<path fill-rule="evenodd" clip-rule="evenodd" d="M18.0033 0C8.05986 0 0 8.23167 0 18.3871C0 28.5425 8.05986 36.7742 18.0033 36.7742C27.9457 36.7742 36.0066 28.5425 36.0066 18.3871C36.0066 8.23167 27.9457 0 18.0033 0Z" transform="translate(0.517578 0.114258)" fill="#134785"/>
<mask id="mask0" mask-type="alpha" maskUnits="userSpaceOnUse" x="0" y="0" width="37" height="37">
<path fill-rule="evenodd" clip-rule="evenodd" d="M18.0033 0C8.05986 0 0 8.23167 0 18.3871C0 28.5425 8.05986 36.7742 18.0033 36.7742C27.9457 36.7742 36.0066 28.5425 36.0066 18.3871C36.0066 8.23167 27.9457 0 18.0033 0Z" transform="translate(0.517578 0.114258)" fill="white"/>
</mask>
<g mask="url(#mask0)">
<path fill-rule="evenodd" clip-rule="evenodd" d="M15.386 6.50509C14.199 5.30197 12.5818 4.53329 10.8621 4.53329C7.46439 4.53341 4.47391 7.59176 4.47367 11.0622C4.47367 14.4985 7.46439 17.5213 10.8621 17.5213C12.5818 17.5213 14.1597 16.8271 15.3465 15.6364L15.3641 16.2777C15.3484 18.2404 17.8775 19.5518 19.5826 18.2055C23.3421 15.24 23.5669 7.61557 19.7117 3.5433C16.0242 -0.351717 9.90824 -1.12418 5.26932 1.66757C-0.794641 5.31674 -0.916467 12.3596 1.36991 16.362C4.75419 22.2906 11.9986 22.4035 14.6006 21.2819C16.323 20.5412 15.5572 18.2736 13.8987 18.9508C10.6241 20.2884 5.11356 18.9481 3.18729 14.4532C1.42045 10.3311 3.23954 5.94443 6.0806 3.96164C8.75419 2.09799 13.7813 1.55124 17.5286 4.86764C21.5486 8.42489 19.8421 14.5645 18.4161 16.0472C18.0506 16.4243 17.3907 16.1207 17.4505 15.5326L17.4456 6.54757C17.4456 6.2944 17.2742 5.49496 16.439 5.49496L16.3047 5.49667C15.7703 5.49667 15.386 5.93173 15.386 6.50937V6.50509ZM10.9336 6.7839C13.1634 6.7839 15.0103 8.29684 15.139 10.8126L15.1438 11.3214C15.0242 13.5344 13.3636 15.4048 10.8389 15.4048C8.57499 15.4048 6.84745 13.7592 6.84745 11.156C6.84745 8.83066 8.27543 6.7839 10.8492 6.7839H10.9336Z" transform="translate(7.26904 7.00977)" fill="white"/>
</g>
</svg>
