<svg width="37" height="37" viewBox="0 0 37 37" fill="none" xmlns="http://www.w3.org/2000/svg">
<path fill-rule="evenodd" clip-rule="evenodd" d="M18.0033 0C8.05986 0 0 8.23167 0 18.3871C0 28.5414 8.05986 36.7742 18.0033 36.7742C27.9468 36.7742 36.0066 28.5414 36.0066 18.3871C36.0066 8.23167 27.9468 0 18.0033 0Z" transform="translate(0.0839844 0.115234)" fill="#D53437"/>
<path fill-rule="evenodd" clip-rule="evenodd" d="M16.3643 5.75782C16.2004 6.1836 16.4153 6.25013 16.7288 6.34681C18.0063 6.75648 19.428 7.74683 19.428 9.49207C19.428 12.3801 15.3992 16.0183 9.34277 16.0183C4.72266 16.0183 0 13.7036 0 9.89613C0 7.90565 1.21973 5.60377 3.32031 3.43177C6.12549 0.5326 9.39673 -0.788079 10.6265 0.484626C11.1692 1.04517 11.2219 2.01588 10.873 3.17518C10.7007 3.72816 11.3303 3.46717 11.3972 3.43934L11.4031 3.43702C13.6704 2.45521 15.6484 2.39796 16.3711 3.46546C16.7566 4.03492 16.72 4.83265 16.3643 5.75782ZM2.24609 10.8048C2.48608 13.3074 5.66821 15.0298 9.35498 14.6538C13.0417 14.2766 15.8359 11.9426 15.5972 9.4397C15.3579 6.93824 12.1753 5.21534 8.48853 5.59241C4.80249 5.96937 2.00708 8.30274 2.24609 10.8048Z" transform="translate(6.83545 11.9521)" fill="white"/>
<path d="M6.28638 2.01153C4.82391 0.335117 2.66647 -0.303792 0.675147 0.133678H0.674555C0.376654 0.199466 0.135328 0.424568 0.0414845 0.724191C-0.0523593 1.02381 0.0155353 1.35244 0.219593 1.58627C0.423651 1.82011 0.73287 1.92363 1.03077 1.85785C2.44735 1.54681 3.9803 2.00234 5.02082 3.19261C6.02434 4.34238 6.35813 5.95842 5.89641 7.43169L5.8967 7.432C5.82683 7.6545 5.84548 7.89661 5.94853 8.10487C6.05159 8.31314 6.23057 8.47044 6.44598 8.54205C6.89363 8.6917 7.37393 8.43828 7.51937 7.9757L7.51967 7.97203C8.14386 5.96927 7.74944 3.6861 6.28638 2.01153Z" transform="translate(21.2998 9.32031)" fill="white"/>
<path d="M3.33479 0.978584C2.62295 0.162115 1.57207 -0.148002 0.601723 0.0653759C0.338846 0.115097 0.122902 0.30865 0.0380153 0.570634C-0.0468715 0.832618 0.0127235 1.1216 0.193585 1.32501C0.374446 1.52841 0.647969 1.61407 0.907602 1.54861V1.54922C1.39824 1.44075 1.90762 1.61058 2.24453 1.99496C2.58087 2.38035 2.69234 2.92221 2.53678 3.41575H2.53738C2.41269 3.8145 2.62408 4.24228 3.00967 4.37151C3.39552 4.50014 3.8092 4.28115 3.93382 3.8823C4.23881 2.90664 4.04812 1.79475 3.33479 0.978584Z" transform="translate(22.0049 12.4492)" fill="white"/>
<path fill-rule="evenodd" clip-rule="evenodd" d="M0.30476 2.1554C1.06672 0.557133 3.04963 -0.34692 4.80427 0.125126C6.6197 0.610355 7.54622 2.38111 6.80378 4.10096C6.05134 5.8606 3.88752 6.79834 2.05134 6.18641C0.279369 5.59461 -0.471363 3.78528 0.30476 2.1554ZM4.63874 2.72889C4.50984 2.95728 4.22493 3.0669 4.00154 2.97168C3.78181 2.87793 3.71296 2.62329 3.83796 2.39917C3.96638 2.17627 4.24055 2.06763 4.4593 2.15735C4.68196 2.24146 4.76204 2.49964 4.63874 2.72889ZM3.46418 4.28809C3.10774 4.8761 2.34407 5.13391 1.76887 4.86231C1.20198 4.59571 1.03474 3.91211 1.39192 3.33875C1.74397 2.7677 2.48176 2.51307 3.05256 2.76038C3.6302 3.01514 3.81477 3.69385 3.46418 4.28809Z" transform="translate(11.7549 19.3447)" fill="white"/>
</svg>
