<svg width="37" height="37" viewBox="0 0 37 37" fill="none" xmlns="http://www.w3.org/2000/svg">
<path fill-rule="evenodd" clip-rule="evenodd" d="M5.93884 4.66343L3.9506 4.21294C3.19446 4.03597 2.32355 3.80383 2.32355 3.07524C2.32355 2.34665 2.93454 1.83641 4.03724 1.83641C6.2584 1.83641 6.05587 3.39587 7.15857 3.39587C7.73918 3.39587 8.24777 3.04651 8.24777 2.44778C8.24777 1.04921 6.05587 0 4.19702 0C2.1784 0 0.0292554 0.874536 0.0292554 3.20625C0.0292554 4.32901 0.421953 5.52417 2.5846 6.07808L5.2716 6.763C6.084 6.96756 6.28766 7.43413 6.28766 7.85589C6.28766 8.55575 5.60578 9.24067 4.37143 9.24067C1.96011 9.24067 2.2943 7.34564 1.00256 7.34564C0.421953 7.34564 0 7.75361 0 8.3374C0 9.47395 1.35137 10.9897 4.37143 10.9897C7.24521 10.9897 8.6686 9.57508 8.6686 7.68121C8.6686 6.45732 8.11725 5.15873 5.93884 4.66343Z" transform="translate(13.9297 12.7861)" fill="#00AFF0"/>
<path fill-rule="evenodd" clip-rule="evenodd" d="M25.531 26.0533C24.5802 27.0244 23.3177 27.5588 21.9731 27.5588C21.1022 27.5588 20.2504 27.3278 19.4976 26.8922C19.0082 26.9807 18.5075 27.0278 18.0079 27.0278C16.8602 27.0278 15.7473 26.798 14.6998 26.3441C13.6859 25.9074 12.7779 25.2811 11.9959 24.4835C11.2161 23.6871 10.6029 22.7586 10.1753 21.7243C9.73197 20.6533 9.50693 19.5167 9.50693 18.3445C9.50693 17.8423 9.55081 17.3401 9.6352 16.8483C9.22112 16.0887 9.00171 15.2302 9.00171 14.3557C9.00171 12.9835 9.52493 11.6918 10.4757 10.7219C11.4265 9.74971 12.6901 9.21533 14.0348 9.21533C14.8584 9.21533 15.6708 9.42563 16.3943 9.81866C16.3966 9.81751 16.3977 9.81751 16.3977 9.81751C16.9254 9.71408 17.4678 9.66237 18.0079 9.66237C19.1556 9.66237 20.2695 9.89221 21.3171 10.345C22.3287 10.7817 23.239 11.408 24.0187 12.2055C24.7996 13.0019 25.4129 13.9305 25.8404 14.9647C26.2849 16.0346 26.5099 17.1723 26.5099 18.3445C26.5099 18.8732 26.4604 19.4018 26.3682 19.9178C26.7845 20.6808 27.005 21.5427 27.005 22.4184C27.005 23.7917 26.4818 25.0834 25.531 26.0533ZM18.0033 0C8.05986 0 0 8.23282 0 18.3871C0 28.5425 8.05986 36.7742 18.0033 36.7742C27.9468 36.7742 36.0066 28.5425 36.0066 18.3871C36.0066 8.23282 27.9468 0 18.0033 0Z" transform="translate(0.258789 0.114258)" fill="#00AFF0"/>
</svg>
