<svg width="37" height="37" viewBox="0 0 37 37" fill="none" xmlns="http://www.w3.org/2000/svg">
<path fill-rule="evenodd" clip-rule="evenodd" d="M25.1619 14.6373C25.1687 14.7993 25.1732 14.9613 25.1732 15.1257C25.1732 20.1097 21.4578 25.858 14.6638 25.858C12.5776 25.858 10.6366 25.234 9.00171 24.1641C9.29089 24.1986 9.58457 24.2158 9.88275 24.2158C11.6133 24.2158 13.2055 23.6136 14.4702 22.6012C12.8533 22.5713 11.4895 21.4807 11.0192 19.9822C11.2454 20.0258 11.476 20.0488 11.7146 20.0488C12.051 20.0488 12.3773 20.0029 12.6879 19.9167C10.9978 19.5708 9.72522 18.0458 9.72522 16.2186C9.72522 16.2025 9.72522 16.1864 9.72522 16.1703C10.2226 16.453 10.793 16.6231 11.3984 16.6426C10.4071 15.9657 9.75447 14.8108 9.75447 13.503C9.75447 12.8112 9.93676 12.1631 10.2552 11.6057C12.0769 13.888 14.7988 15.39 17.8683 15.5474C17.8053 15.2716 17.7727 14.9832 17.7727 14.6878C17.7727 12.6044 19.4268 10.915 21.4656 10.915C22.529 10.915 23.4888 11.3736 24.1616 12.1068C25.0033 11.9378 25.7943 11.6241 26.5077 11.192C26.232 12.0723 25.6458 12.8112 24.884 13.2789C25.6311 13.187 26.3423 12.9847 27.005 12.6848C26.5099 13.441 25.8832 14.1052 25.1619 14.6373ZM18.0033 0C8.05986 0 0 8.23167 0 18.3871C0 28.5414 8.05986 36.7742 18.0033 36.7742C27.9468 36.7742 36.0066 28.5414 36.0066 18.3871C36.0066 8.23167 27.9468 0 18.0033 0Z" transform="translate(0.608398 0.114258)" fill="#55ACEF"/>
</svg>
