<svg width="37" height="37" viewBox="0 0 37 37" fill="none" xmlns="http://www.w3.org/2000/svg">
<path fill-rule="evenodd" clip-rule="evenodd" d="M18.0033 0C8.05986 0 0 8.23167 0 18.3871C0 28.5425 8.05986 36.7742 18.0033 36.7742C27.9457 36.7742 36.0066 28.5425 36.0066 18.3871C36.0066 8.23167 27.9457 0 18.0033 0Z" transform="translate(0.650391 0.114258)" fill="#7B519D"/>
<mask id="mask0" mask-type="alpha" maskUnits="userSpaceOnUse" x="0" y="0" width="37" height="37">
<path fill-rule="evenodd" clip-rule="evenodd" d="M18.0033 0C8.05986 0 0 8.23167 0 18.3871C0 28.5425 8.05986 36.7742 18.0033 36.7742C27.9457 36.7742 36.0066 28.5425 36.0066 18.3871C36.0066 8.23167 27.9457 0 18.0033 0Z" transform="translate(0.650391 0.114258)" fill="white"/>
</mask>
<g mask="url(#mask0)">
<path fill-rule="evenodd" clip-rule="evenodd" d="M17.8996 14.6181C17.2965 14.1221 16.6519 13.677 16.0175 13.2223C14.7521 12.3146 13.5947 12.2441 12.6505 13.7044C12.1203 14.5242 11.378 14.5601 10.6019 14.2005C8.46231 13.2096 6.81012 11.683 5.84233 9.46189C5.41421 8.47923 5.41985 7.59823 6.42151 6.90323C6.95183 6.53567 7.48612 6.10075 7.44339 5.29763C7.38762 4.25042 4.89808 0.750809 3.91496 0.38144C3.50816 0.228571 3.10303 0.23852 2.68916 0.380581C0.383908 1.17235 -0.570925 3.10863 0.34351 5.40131C3.07153 12.2414 7.8724 17.0032 14.4811 19.9095C14.8579 20.075 15.2764 20.1412 15.4884 20.2006C16.993 20.216 18.7555 18.7355 19.2645 17.2662C19.7546 15.8527 18.7189 15.2916 17.8996 14.6181ZM10.4898 1.08269C15.3211 1.84148 17.5493 4.18779 18.1645 9.15766C18.2216 9.61672 18.0542 10.3075 18.6954 10.3202C19.3657 10.3333 19.2042 9.65273 19.2098 9.19321C19.2665 4.51251 15.2704 0.17331 10.6295 0.0133204C10.2793 0.0647817 9.55481 -0.233279 9.50962 0.568233C9.47951 1.1086 10.0895 1.01982 10.4898 1.08269Z" transform="translate(8.95801 8.40137)" fill="white"/>
<path fill-rule="evenodd" clip-rule="evenodd" d="M1.19929 0.0828135C0.734582 0.0256456 0.121086 -0.197976 0.012499 0.460566C-0.100884 1.15178 0.582877 1.08159 1.02222 1.18203C4.00618 1.86315 5.04518 2.97237 5.53649 5.9954C5.60824 6.43613 5.46568 7.12209 6.19904 7.00841C6.74251 6.92387 6.54621 6.33588 6.59165 5.99242C6.61573 3.09009 4.18068 0.448446 1.19929 0.0828135Z" transform="translate(19.1934 10.7637)" fill="white"/>
<path fill-rule="evenodd" clip-rule="evenodd" d="M0.772548 0.000512347C0.462363 0.00834011 0.157914 0.0426307 0.0438881 0.381194C-0.127349 0.887221 0.232877 1.00787 0.599531 1.06802C1.82361 1.26871 2.46781 2.00588 2.59009 3.25257C2.62312 3.59093 2.83338 3.8651 3.1534 3.82652C3.5969 3.77248 3.637 3.36933 3.6234 2.98647C3.6453 1.58586 2.09527 -0.0330208 0.772548 0.000512347Z" transform="translate(19.894 13.2197)" fill="white"/>
</g>
</svg>
