<svg width="37" height="37" viewBox="0 0 37 37" fill="none" xmlns="http://www.w3.org/2000/svg">
<path d="M16.7147 36.7283C12.4171 36.4021 8.49704 34.5971 5.41905 31.5251C1.37038 27.4914 -0.570995 21.7798 0.146649 16.0427C1.04267 8.86924 5.99565 2.89489 12.7988 0.780567C18.0587 -0.854963 23.9119 0.115339 28.3712 3.35674C33.851 7.34387 36.7009 13.958 35.8546 20.7289C34.9586 27.9024 30.0056 33.8767 23.2025 35.9911C21.1782 36.6224 18.8178 36.8893 16.7147 36.7283Z" transform="translate(0.5625)" fill="#45668E"/>
<path fill-rule="evenodd" clip-rule="evenodd" d="M11.63 12.2297C12.404 12.1564 12.791 12.0399 12.9653 11.8234C13.0107 11.7634 13.0839 11.6169 13.1257 11.497C13.2164 11.2439 13.2198 10.9541 13.1641 8.78927C13.1292 7.43707 13.1501 7.02076 13.2652 6.72101C13.4011 6.37796 13.701 6.22143 13.9659 6.35132C14.2065 6.47122 14.7678 7.06072 15.1339 7.58361C15.9811 8.78261 16.4971 9.71182 17.1176 11.1473C17.2432 11.4304 17.4105 11.6169 17.5848 11.6602C17.6546 11.6802 18.6412 11.6968 19.8545 11.7001L21.9986 11.7068L22.1799 11.6335C22.4135 11.5336 22.5041 11.4037 22.5041 11.1673C22.5041 10.7176 22.0126 9.79509 21.1689 8.66604C21.0538 8.5095 20.618 7.95663 20.2031 7.43374C19.2862 6.28138 19.0875 6.01161 18.948 5.73184C18.7737 5.3788 18.8155 5.08905 19.091 4.746C19.1711 4.64942 19.5756 4.25975 19.9904 3.88007C21.1514 2.81763 21.6779 2.2581 22.1067 1.64528C22.4135 1.20232 22.532 0.875929 22.4832 0.596165C22.4588 0.44296 22.2985 0.259781 22.1172 0.169857C21.901 0.0666106 21.5698 0.0466274 19.7464 0.0233137L18.0206 0L17.7417 0.0899243C17.0305 0.3164 16.5563 0.69275 15.479 1.88508C14.8829 2.54452 14.4401 2.86759 14.1333 2.87092C13.8509 2.87092 13.4918 2.51122 13.3384 2.06493C13.2338 1.76518 13.1954 1.53537 13.1641 1.01581C13.1257 0.402994 13.049 0.259781 12.655 0.103246C12.5121 0.0432969 10.734 0.0233137 10.2634 0.0699411C9.31854 0.169857 8.44345 0.452952 7.57534 0.94254C6.31674 1.64861 5.54625 2.28141 4.71997 3.28723C3.28357 5.03909 2.30388 6.53117 1.11502 8.78261C0.654813 9.65853 0.114419 10.7909 0.027259 11.0607C-0.0599013 11.3405 0.0656095 11.5703 0.351495 11.6569C0.449115 11.6868 0.992995 11.7035 2.2481 11.7201L4.00874 11.7368L4.21444 11.6635C4.53867 11.5436 4.67464 11.3904 4.89429 10.8808C5.08255 10.4512 6.0971 8.50617 6.41436 7.96329C6.7386 7.41376 7.08375 6.95414 7.3801 6.68104C7.74617 6.338 7.91003 6.25473 8.16803 6.27472C8.38767 6.2947 8.44694 6.34133 8.58291 6.62442C8.91412 7.30718 8.96642 9.61524 8.67007 10.5211C8.49924 11.0374 8.24473 11.2339 7.54047 11.3771C7.41845 11.4037 7.41845 11.4437 7.53001 11.6002C7.80195 11.9733 8.28657 12.1531 9.21046 12.2264C9.71599 12.2663 11.2152 12.2697 11.63 12.2297Z" transform="translate(7.31104 24.5195) scale(1 -1)" fill="white"/>
</svg>
