<svg width="37" height="37" viewBox="0 0 37 37" fill="none" xmlns="http://www.w3.org/2000/svg">
<path fill-rule="evenodd" clip-rule="evenodd" d="M18.0033 0C8.05986 0 0 8.23167 0 18.3871C0 28.5425 8.05986 36.7742 18.0033 36.7742C27.9457 36.7742 36.0066 28.5425 36.0066 18.3871C36.0066 8.23167 27.9457 0 18.0033 0Z" transform="translate(0.0419922 0.114258)" fill="#2DC100"/>
<mask id="mask0" mask-type="alpha" maskUnits="userSpaceOnUse" x="0" y="0" width="37" height="37">
<path fill-rule="evenodd" clip-rule="evenodd" d="M18.0033 0C8.05986 0 0 8.23167 0 18.3871C0 28.5425 8.05986 36.7742 18.0033 36.7742C27.9457 36.7742 36.0066 28.5425 36.0066 18.3871C36.0066 8.23167 27.9457 0 18.0033 0Z" transform="translate(0.0419922 0.114258)" fill="white"/>
</mask>
<g mask="url(#mask0)">
<path fill-rule="evenodd" clip-rule="evenodd" d="M16.3129 6.79958C14.1332 6.91591 12.238 7.59071 10.6992 9.11525C9.14447 10.6555 8.435 12.543 8.62885 14.8827C8.38642 14.8521 8.15009 14.8206 7.91791 14.7896L7.90912 14.7883L7.90033 14.7871C7.32367 14.7102 6.77338 14.6367 6.22065 14.5892C5.95111 14.5661 5.63129 14.599 5.40302 14.7306C4.862 15.0424 4.33686 15.383 3.76728 15.7523C3.53925 15.9003 3.30414 16.0528 3.0578 16.21C3.10517 15.9906 3.14765 15.7794 3.18891 15.5746L3.19233 15.5571L3.1933 15.5528C3.28705 15.0847 3.37445 14.6498 3.49921 14.2265C3.63227 13.7747 3.5705 13.5233 3.16303 13.2291C0.546573 11.3425 -0.55621 8.51906 0.26923 5.6122C1.03266 2.92311 2.9079 1.29225 5.456 0.442155C8.93378 -0.718123 12.8422 0.46547 14.957 3.28542C15.7206 4.30409 16.1892 5.4474 16.3129 6.79958ZM6.28168 5.89382C6.30194 5.3622 5.85077 4.88319 5.31488 4.8672C4.7663 4.85072 4.31513 5.27882 4.29926 5.83095C4.2829 6.3904 4.70209 6.83888 5.25458 6.85317C5.80243 6.86733 6.26142 6.43861 6.28168 5.89382ZM10.5329 5.87843C10.5234 5.34462 10.9777 4.87685 11.5153 4.86672C12.0627 4.85658 12.5065 5.29396 12.5109 5.84853C12.5163 6.41347 12.0956 6.85097 11.5414 6.85768C10.9885 6.86452 10.5427 6.43166 10.5329 5.87843Z" transform="translate(6.30566 8.19727)" fill="white"/>
<path fill-rule="evenodd" clip-rule="evenodd" d="M11.721 13.0552C11.5081 12.9584 11.3008 12.8467 11.096 12.7363L11.0942 12.7354C10.6353 12.4883 10.1895 12.2481 9.72364 12.1985C9.32936 12.1564 8.92311 12.2755 8.5127 12.3959C8.22437 12.4804 7.93385 12.5656 7.64405 12.5958C5.50416 12.8195 3.58717 12.2103 2.0066 10.7174C-0.999746 7.87757 -0.570303 3.52308 2.90797 1.19581C5.99928 -0.872552 10.5327 -0.182977 12.7122 2.6869C14.6143 5.19129 14.3906 8.51563 12.0689 10.6195C11.397 11.2284 11.155 11.7294 11.5862 12.5321C11.6401 12.6323 11.6616 12.7506 11.6841 12.8746L11.686 12.8853C11.6963 12.9412 11.707 12.9982 11.721 13.0552ZM3.86476 5.28675C4.30421 5.28724 4.66603 4.93604 4.68263 4.4928C4.7002 4.02357 4.33058 3.63001 3.87062 3.62806C3.41505 3.62598 3.03346 4.02503 3.04933 4.48731C3.06422 4.92896 3.42848 5.28626 3.86476 5.28675ZM8.12354 4.4231C8.14088 3.98316 8.50318 3.62672 8.92945 3.62977C9.38307 3.63306 9.74122 4.02235 9.72413 4.4939C9.70826 4.94202 9.35987 5.28248 8.91895 5.28101C8.46314 5.27979 8.10499 4.89356 8.12354 4.4231Z" transform="translate(15.7944 15.8193)" fill="white"/>
</g>
</svg>
